<svg xmlns="http://www.w3.org/2000/svg" width="128" height="128" viewBox="0 0 128 128">
  <!-- Background gradient -->
  <defs>
    <linearGradient id="grad1" x1="0%" y1="0%" x2="100%" y2="100%">
      <stop offset="0%" style="stop-color:#667eea;stop-opacity:1" />
      <stop offset="100%" style="stop-color:#764ba2;stop-opacity:1" />
    </linearGradient>
  </defs>

  <!-- Background circle -->
  <circle cx="64" cy="64" r="60" fill="url(#grad1)"/>

  <!-- Logic App workflow icon -->
  <g fill="white">
    <!-- Top node -->
    <circle cx="64" cy="30" r="8"/>

    <!-- Left branch -->
    <line x1="64" y1="38" x2="64" y2="50" stroke="white" stroke-width="3"/>
    <line x1="64" y1="50" x2="40" y2="50" stroke="white" stroke-width="3"/>
    <line x1="40" y1="50" x2="40" y2="65" stroke="white" stroke-width="3"/>
    <rect x="30" y="65" width="20" height="16" rx="3" fill="white"/>
    <line x1="40" y1="81" x2="40" y2="95" stroke="white" stroke-width="3"/>
    <circle cx="40" cy="100" r="6"/>

    <!-- Right branch -->
    <line x1="64" y1="50" x2="88" y2="50" stroke="white" stroke-width="3"/>
    <line x1="88" y1="50" x2="88" y2="65" stroke="white" stroke-width="3"/>
    <rect x="78" y="65" width="20" height="16" rx="3" fill="white"/>
    <line x1="88" y1="81" x2="88" y2="95" stroke="white" stroke-width="3"/>
    <circle cx="88" cy="100" r="6"/>
  </g>

  <!-- Backup/restore arrows -->
  <g fill="#ffffff" opacity="0.8">
    <!-- Down arrow (backup) -->
    <path d="M 100 35 L 100 50 L 95 45 L 100 50 L 105 45 Z"/>
    <!-- Up arrow (restore) -->
    <path d="M 110 50 L 110 35 L 105 40 L 110 35 L 115 40 Z"/>
  </g>
</svg>
